<?xml version="1.0" encoding="utf-8"?>
<!-- Generator: Adobe Illustrator 26.0.0, SVG Export Plug-In . SVG Version: 6.00 Build 0)  -->
<svg version="1.1" id="Capa_1" xmlns="http://www.w3.org/2000/svg" xmlns:xlink="http://www.w3.org/1999/xlink" x="0px" y="0px"
	 viewBox="0 0 180 180" style="enable-background:new 0 0 180 180;" xml:space="preserve">
<style type="text/css">
	.st0{enable-background:new    ;}
	.st1{clip-path:url(#SVGID_00000077326412709964885910000016624700673644543638_);}
	.st2{clip-path:url(#SVGID_00000152226383084640937260000001065556261622441910_);fill:#4F4F4F;}
</style>
<g>
	<g>
		<g class="st0">
			<defs>
				<path id="SVGID_1_" class="st0" d="M61.7,157.79c-1.95-18.95-15.19-22.93-20.63-38.36c-3.98-11.28,2.18-23.68-2.3-34.5
					c-0.42-5.32-3.25-9.12-8.49-11.39c-2.74-7.52-3.94-15.29-3.6-23.31C23.74,41.79,10.96,30.2,5.78,23.06
					c36.82-0.28,73.65-0.57,110.47-0.85c5.12,7.3,17.84,18.91,20.93,27.14c0.24,7.97,1.37,15.81,3.39,23.51
					c4.85,2.36,7.77,6.04,8.75,11.05c4.81,10.75-1.11,22.86,3.31,34.35c5.95,15.45,18.08,20.45,19.6,38.67
					C135.39,157.22,98.55,157.51,61.7,157.79z"/>
			</defs>
			<clipPath id="SVGID_00000009560428210699736380000003693009069606502548_">
				<use xlink:href="#SVGID_1_"  style="overflow:visible;"/>
			</clipPath>
			<g style="clip-path:url(#SVGID_00000009560428210699736380000003693009069606502548_);">
				<g>
					<defs>
						<path id="SVGID_00000147914845348795934640000000230887092888695218_" d="M74.25,22.5c-10.89,0.1-21.78,0.18-32.68,0.26
							c4.53,7.85,12.93,20.45,13.69,30.09c-3.21,6.33-3.67,12.56-1.4,18.69c0.76,4.32,2.45,8.28,5.06,11.88
							c1.4,11.29-9.76,26.94-7.51,37.45c3.28,15.32,13.77,18.45,10.29,36.91c9.66-0.08,14.49-0.11,24.15-0.19
							c2.81-13.6,3.4-15.47-5.03-27.27c14.93-0.14,29.86-0.27,44.79-0.41c12,9.82,15.36,13.11,19.69,27.22
							c10.77-0.08,16.16-0.13,26.93-0.21c-4.73-18.96-21.07-23.62-30.8-38.71c-7.13-11.04-4.33-24.43-10.99-34.43
							c-2.13-4.75-5.85-7.88-11.16-9.4c-5.42-5.26-8.23-11.71-8.44-19.35C105.01,41.89,85.39,31.12,74.25,22.5 M78.09,112.19
							c0.68-9.41,2.17-18.7,4.46-27.86c-0.89-3.45-2.38-6.59-4.48-9.41c-1.29-9.49,3.27-23.3-3.07-31.79
							c11.27,9.69,10.58,21.28,19.88,31.7c4.11,2.62,7.83,5.71,11.17,9.29c0.51,9.59,2.43,18.88,5.78,27.87
							C100.59,112.05,89.34,112.12,78.09,112.19"/>
					</defs>
					<clipPath id="SVGID_00000072276296333782708190000002361206128526992311_">
						<use xlink:href="#SVGID_00000147914845348795934640000000230887092888695218_"  style="overflow:visible;"/>
					</clipPath>
					<path style="clip-path:url(#SVGID_00000072276296333782708190000002361206128526992311_);fill:#4F4F4F;" d="M74.25,22.5
						c-10.89,0.1-21.78,0.18-32.68,0.26c0.04,0.25,0.07,0.37,0.13,0.62c10.99-0.08,21.98-0.16,32.97-0.26
						C74.5,22.88,74.41,22.75,74.25,22.5"/>
					<path style="clip-path:url(#SVGID_00000072276296333782708190000002361206128526992311_);fill:#4F4F4F;" d="M75.34,23.93
						c-11.13,0.1-22.26,0.17-33.38,0.25c0.09,0.27,0.15,0.41,0.26,0.67c11.25-0.08,22.51-0.15,33.76-0.25
						C75.71,24.34,75.58,24.21,75.34,23.93"/>
					<path style="clip-path:url(#SVGID_00000072276296333782708190000002361206128526992311_);fill:#4F4F4F;" d="M76.8,25.38
						c-11.41,0.1-22.82,0.17-34.23,0.25c0.13,0.26,0.2,0.39,0.35,0.65c11.55-0.08,23.11-0.16,34.66-0.25
						C77.26,25.77,77.1,25.64,76.8,25.38"/>
					<path style="clip-path:url(#SVGID_00000072276296333782708190000002361206128526992311_);fill:#4F4F4F;" d="M78.54,26.76
						c-11.73,0.09-23.45,0.17-35.18,0.25c0.16,0.25,0.24,0.38,0.41,0.63c11.88-0.08,23.76-0.15,35.65-0.25
						C79.06,27.14,78.88,27.01,78.54,26.76"/>
					<path style="clip-path:url(#SVGID_00000072276296333782708190000002361206128526992311_);fill:#4F4F4F;" d="M80.48,28.11
						c-12.07,0.09-24.14,0.17-36.21,0.25c0.18,0.25,0.26,0.37,0.44,0.62c12.24-0.08,24.48-0.16,36.71-0.25
						C81.04,28.48,80.85,28.35,80.48,28.11"/>
					<path style="clip-path:url(#SVGID_00000072276296333782708190000002361206128526992311_);fill:#4F4F4F;" d="M82.55,29.43
						c-12.44,0.09-24.88,0.17-37.32,0.25c0.18,0.24,0.27,0.37,0.45,0.61c12.62-0.08,25.23-0.16,37.85-0.25
						C83.14,29.8,82.94,29.67,82.55,29.43"/>
					<path style="clip-path:url(#SVGID_00000072276296333782708190000002361206128526992311_);fill:#4F4F4F;" d="M84.68,30.75
						c-12.82,0.09-25.65,0.17-38.47,0.26c0.18,0.25,0.26,0.37,0.43,0.62c13.01-0.09,26.01-0.17,39.02-0.26
						C85.27,31.12,85.07,30.99,84.68,30.75"/>
					<path style="clip-path:url(#SVGID_00000072276296333782708190000002361206128526992311_);fill:#4F4F4F;" d="M86.78,32.08
						c-13.22,0.09-26.44,0.18-39.66,0.27c0.16,0.25,0.24,0.38,0.39,0.63c13.4-0.09,26.8-0.18,40.2-0.28
						C87.35,32.46,87.16,32.33,86.78,32.08"/>
					<path style="clip-path:url(#SVGID_00000072276296333782708190000002361206128526992311_);fill:#4F4F4F;" d="M88.76,33.45
						c-13.61,0.1-27.22,0.19-40.84,0.29c0.13,0.26,0.2,0.39,0.32,0.66c13.79-0.1,27.58-0.2,41.37-0.29
						C89.28,33.84,89.11,33.71,88.76,33.45"/>
					<path style="clip-path:url(#SVGID_00000072276296333782708190000002361206128526992311_);fill:#4F4F4F;" d="M90.52,34.87
						c-13.99,0.1-27.98,0.2-41.97,0.3c0.1,0.27,0.14,0.41,0.22,0.69c14.15-0.11,28.31-0.21,42.46-0.32
						C90.96,35.28,90.82,35.14,90.52,34.87"/>
					<path style="clip-path:url(#SVGID_00000072276296333782708190000002361206128526992311_);fill:#4F4F4F;" d="M91.98,36.36
						c-14.34,0.11-28.68,0.22-43.02,0.33c0.05,0.29,0.06,0.44,0.1,0.73c14.49-0.11,28.99-0.22,43.48-0.34
						C92.33,36.79,92.21,36.65,91.98,36.36"/>
					<path style="clip-path:url(#SVGID_00000072276296333782708190000002361206128526992311_);fill:#4F4F4F;" d="M93.14,37.9
						c-14.65,0.11-29.3,0.21-43.94,0.31c0.06,0.27,0.1,0.39,0.18,0.64c14.78-0.1,29.56-0.2,44.34-0.3
						C93.48,38.31,93.36,38.18,93.14,37.9"/>
					<path style="clip-path:url(#SVGID_00000072276296333782708190000002361206128526992311_);fill:#4F4F4F;" d="M94.44,39.28
						c-14.94,0.09-29.87,0.19-44.81,0.28c0.1,0.23,0.15,0.34,0.26,0.56c15.07-0.09,30.14-0.18,45.21-0.27
						C94.83,39.63,94.7,39.51,94.44,39.28"/>
					<path style="clip-path:url(#SVGID_00000072276296333782708190000002361206128526992311_);fill:#4F4F4F;" d="M95.91,40.48
						c-15.23,0.09-30.46,0.17-45.68,0.25c0.12,0.21,0.19,0.31,0.32,0.5C65.9,41.16,81.27,41.08,96.63,41
						C96.34,40.8,96.19,40.69,95.91,40.48"/>
					<path style="clip-path:url(#SVGID_00000072276296333782708190000002361206128526992311_);fill:#4F4F4F;" d="M97.5,41.57
						c-15.52,0.08-31.04,0.16-46.57,0.24c0.14,0.19,0.21,0.28,0.36,0.47c15.66-0.08,31.32-0.16,46.98-0.23
						C97.96,41.85,97.8,41.76,97.5,41.57"/>
					<path style="clip-path:url(#SVGID_00000072276296333782708190000002361206128526992311_);fill:#4F4F4F;" d="M99.18,42.57
						c-15.82,0.08-31.64,0.15-47.46,0.23c0.15,0.18,0.22,0.27,0.37,0.45c9.18-0.04,13.76-0.07,22.94-0.11
						c-0.01-0.01-0.01-0.01-0.02-0.02c0.02,0.01,0.03,0.01,0.04,0.02c9.97-0.05,14.95-0.07,24.92-0.12
						C99.65,42.85,99.49,42.76,99.18,42.57"/>
					<path style="clip-path:url(#SVGID_00000072276296333782708190000002361206128526992311_);fill:#4F4F4F;" d="M75.47,43.67
						c-9.18,0.04-13.77,0.07-22.95,0.11c0.15,0.18,0.22,0.27,0.37,0.46c9.18-0.04,13.78-0.07,22.96-0.11
						C75.7,43.94,75.63,43.85,75.47,43.67 M100.89,43.55c-9.97,0.05-14.96,0.07-24.93,0.12c0.31,0.18,0.47,0.27,0.78,0.45
						c9.98-0.05,14.97-0.07,24.94-0.12C101.36,43.82,101.2,43.73,100.89,43.55"/>
					<path style="clip-path:url(#SVGID_00000072276296333782708190000002361206128526992311_);fill:#4F4F4F;" d="M76.29,44.66
						c-9.19,0.05-13.79,0.07-22.98,0.12c0.14,0.19,0.21,0.28,0.35,0.48c9.2-0.05,13.79-0.07,22.99-0.12
						C76.51,44.94,76.43,44.85,76.29,44.66 M102.59,44.53c-9.98,0.05-14.98,0.07-24.96,0.12c0.31,0.19,0.46,0.28,0.76,0.47
						c9.99-0.05,14.99-0.08,24.98-0.13C103.06,44.81,102.9,44.71,102.59,44.53"/>
					<path style="clip-path:url(#SVGID_00000072276296333782708190000002361206128526992311_);fill:#4F4F4F;" d="M77.04,45.71
						c-9.2,0.05-13.8,0.07-23.01,0.12c0.12,0.2,0.19,0.31,0.3,0.52c9.21-0.05,13.81-0.08,23.02-0.13
						C77.23,46.01,77.17,45.91,77.04,45.71 M104.24,45.56c-10,0.05-15,0.08-25,0.13c0.29,0.2,0.43,0.3,0.71,0.52
						c10.01-0.06,15.01-0.08,25.02-0.14C104.68,45.86,104.53,45.76,104.24,45.56"/>
					<path style="clip-path:url(#SVGID_00000072276296333782708190000002361206128526992311_);fill:#4F4F4F;" d="M77.69,46.86
						c-9.22,0.06-13.83,0.08-23.04,0.14c0.1,0.23,0.15,0.35,0.23,0.59c9.23-0.06,13.84-0.09,23.06-0.15
						C77.84,47.2,77.79,47.08,77.69,46.86 M105.78,46.69c-10.02,0.06-15.03,0.09-25.04,0.15c0.27,0.22,0.4,0.34,0.65,0.58
						c10.03-0.06,15.04-0.1,25.07-0.16C106.19,47.02,106.06,46.91,105.78,46.69"/>
					<path style="clip-path:url(#SVGID_00000072276296333782708190000002361206128526992311_);fill:#4F4F4F;" d="M78.18,48.16
						c-9.23,0.06-13.85,0.09-23.08,0.16c0.07,0.26,0.09,0.39,0.14,0.67c9.24-0.07,13.86-0.1,23.11-0.17
						C78.29,48.54,78.25,48.41,78.18,48.16 M107.19,47.96c-10.04,0.07-15.06,0.1-25.09,0.17c0.23,0.25,0.35,0.39,0.56,0.66
						c10.05-0.07,15.07-0.11,25.12-0.18C107.55,48.34,107.43,48.21,107.19,47.96"/>
					<path style="clip-path:url(#SVGID_00000072276296333782708190000002361206128526992311_);fill:#4F4F4F;" d="M78.47,49.64
						c-9.25,0.07-13.88,0.11-23.13,0.18c0.02,0.3,0.03,0.45,0.04,0.77c9.26-0.08,13.89-0.12,23.15-0.2
						C78.52,50.09,78.51,49.94,78.47,49.64 M108.4,49.41c-10.06,0.08-15.09,0.12-25.15,0.2c0.19,0.29,0.28,0.44,0.46,0.76
						c10.07-0.08,15.11-0.13,25.17-0.21C108.7,49.85,108.6,49.7,108.4,49.41"/>
					<path style="clip-path:url(#SVGID_00000072276296333782708190000002361206128526992311_);fill:#4F4F4F;" d="M78.54,51.35
						c-9.27,0.08-13.91,0.12-23.18,0.21c-0.01,0.34-0.03,0.51-0.06,0.86c9.28-0.09,13.92-0.13,23.2-0.22
						C78.53,51.85,78.54,51.68,78.54,51.35 M109.39,51.08c-10.08,0.09-15.12,0.13-25.2,0.22c0.15,0.33,0.23,0.5,0.36,0.85
						c10.09-0.09,15.14-0.14,25.23-0.23C109.63,51.57,109.55,51.4,109.39,51.08"/>
					<path style="clip-path:url(#SVGID_00000072276296333782708190000002361206128526992311_);fill:#4F4F4F;" d="M78.42,53.24
						c-9.29,0.09-13.93,0.14-23.22,0.23c-0.05,0.37-0.07,0.55-0.13,0.93c9.29-0.09,13.94-0.14,23.23-0.23
						C78.36,53.79,78.38,53.6,78.42,53.24 M110.18,52.93c-10.1,0.1-15.15,0.15-25.25,0.24c0.12,0.36,0.18,0.55,0.29,0.92
						c10.11-0.1,15.16-0.15,25.27-0.25C110.37,53.47,110.31,53.29,110.18,52.93"/>
					<path style="clip-path:url(#SVGID_00000072276296333782708190000002361206128526992311_);fill:#4F4F4F;" d="M78.14,55.27
						c-9.3,0.1-13.95,0.14-23.25,0.24c-0.07,0.39-0.1,0.59-0.18,0.98c9.31-0.1,13.96-0.15,23.27-0.24
						C78.05,55.86,78.08,55.66,78.14,55.27 M110.81,54.94c-10.12,0.1-15.18,0.15-25.3,0.26c0.1,0.39,0.15,0.58,0.24,0.97
						c10.13-0.11,15.19-0.16,25.32-0.26C110.97,55.52,110.92,55.32,110.81,54.94"/>
					<path style="clip-path:url(#SVGID_00000072276296333782708190000002361206128526992311_);fill:#4F4F4F;" d="M77.76,57.41
						c-9.31,0.1-13.97,0.15-23.28,0.25c-0.08,0.4-0.12,0.61-0.21,1.01c9.32-0.1,13.98-0.15,23.3-0.25
						C77.65,58.01,77.69,57.81,77.76,57.41 M111.34,57.05c-10.13,0.11-15.2,0.16-25.34,0.27c0.08,0.4,0.12,0.6,0.2,1.01
						c10.14-0.11,15.21-0.16,25.35-0.27C111.47,57.65,111.43,57.45,111.34,57.05"/>
					<path style="clip-path:url(#SVGID_00000072276296333782708190000002361206128526992311_);fill:#4F4F4F;" d="M77.33,59.59
						c-9.32,0.1-13.98,0.15-23.31,0.25c-0.09,0.41-0.13,0.61-0.22,1.02c9.33-0.1,13.99-0.15,23.32-0.25
						C77.2,60.21,77.25,60,77.33,59.59 M111.8,59.22c-10.15,0.11-15.22,0.16-25.37,0.27c0.08,0.41,0.11,0.61,0.19,1.02
						c10.15-0.11,15.23-0.16,25.38-0.27C111.92,59.83,111.88,59.63,111.8,59.22"/>
					<path style="clip-path:url(#SVGID_00000072276296333782708190000002361206128526992311_);fill:#4F4F4F;" d="M76.88,61.8
						c-9.33,0.1-14,0.15-23.33,0.25c-0.08,0.4-0.12,0.61-0.2,1c9.33-0.1,14-0.15,23.33-0.25C76.76,62.4,76.8,62.2,76.88,61.8
						 M112.24,61.41c-10.16,0.11-15.24,0.16-25.4,0.27c0.08,0.4,0.12,0.6,0.2,1c10.16-0.11,15.24-0.16,25.41-0.27
						C112.36,62.02,112.32,61.82,112.24,61.41"/>
					<path style="clip-path:url(#SVGID_00000072276296333782708190000002361206128526992311_);fill:#4F4F4F;" d="M76.47,63.96
						c-9.34,0.1-14.01,0.15-23.34,0.24c-0.07,0.39-0.11,0.59-0.17,0.97c9.34-0.1,14.01-0.14,23.35-0.24
						C76.37,64.55,76.4,64.35,76.47,63.96 M112.71,63.58c-10.17,0.11-15.25,0.16-25.42,0.27c0.09,0.39,0.13,0.59,0.23,0.97
						c10.17-0.1,15.25-0.16,25.42-0.26C112.85,64.17,112.8,63.97,112.71,63.58"/>
					<path style="clip-path:url(#SVGID_00000072276296333782708190000002361206128526992311_);fill:#4F4F4F;" d="M76.14,66.05
						c-9.34,0.09-14.01,0.14-23.35,0.23c-0.05,0.37-0.08,0.56-0.12,0.92c9.34-0.09,14.01-0.14,23.35-0.23
						C76.07,66.61,76.09,66.42,76.14,66.05 M113.25,65.67c-10.17,0.1-15.26,0.15-25.43,0.26c0.11,0.38,0.16,0.56,0.28,0.93
						c10.17-0.1,15.26-0.15,25.44-0.25C113.41,66.24,113.36,66.05,113.25,65.67"/>
					<path style="clip-path:url(#SVGID_00000072276296333782708190000002361206128526992311_);fill:#4F4F4F;" d="M75.94,68.01
						c-9.34,0.09-14.01,0.13-23.35,0.22c-0.02,0.35-0.03,0.52-0.04,0.85c9.34-0.08,14.01-0.12,23.35-0.21
						C75.9,68.54,75.91,68.36,75.94,68.01 M113.9,67.66c-10.18,0.1-15.27,0.14-25.44,0.24c0.13,0.35,0.2,0.52,0.35,0.86
						c10.18-0.09,15.27-0.14,25.45-0.23C114.11,68.19,114.04,68.01,113.9,67.66"/>
					<path style="clip-path:url(#SVGID_00000072276296333782708190000002361206128526992311_);fill:#4F4F4F;" d="M75.9,69.82
						c-9.34,0.08-14.01,0.12-23.35,0.19c0.01,0.31,0.03,0.46,0.06,0.76c9.34-0.07,14.01-0.11,23.35-0.18
						C75.93,70.29,75.92,70.13,75.9,69.82 M114.72,69.49c-10.18,0.09-15.27,0.13-25.45,0.22c0.17,0.32,0.26,0.47,0.45,0.77
						c10.18-0.08,15.27-0.12,25.45-0.2C114.98,69.96,114.89,69.81,114.72,69.49"/>
					<path style="clip-path:url(#SVGID_00000072276296333782708190000002361206128526992311_);fill:#4F4F4F;" d="M76.09,71.41
						c-9.34,0.07-14.01,0.1-23.35,0.17c0.06,0.27,0.09,0.4,0.16,0.65c9.34-0.06,14.01-0.09,23.35-0.16
						C76.18,71.82,76.14,71.68,76.09,71.41 M115.75,71.11c-10.18,0.08-15.27,0.11-25.45,0.19c0.21,0.28,0.32,0.41,0.55,0.67
						c10.18-0.07,15.27-0.11,25.45-0.18C116.07,71.53,115.96,71.4,115.75,71.11"/>
					<path style="clip-path:url(#SVGID_00000072276296333782708190000002361206128526992311_);fill:#4F4F4F;" d="M76.49,72.79
						c-9.34,0.06-14.01,0.09-23.35,0.15c0.09,0.24,0.14,0.35,0.25,0.57c9.34-0.06,14.01-0.08,23.35-0.14
						C76.63,73.15,76.58,73.03,76.49,72.79 M117,72.53c-10.18,0.07-15.27,0.1-25.45,0.17c0.25,0.24,0.38,0.36,0.64,0.59
						c10.18-0.06,15.27-0.09,25.45-0.16C117.38,72.89,117.25,72.78,117,72.53"/>
					<path style="clip-path:url(#SVGID_00000072276296333782708190000002361206128526992311_);fill:#4F4F4F;" d="M77.07,74.01
						c-9.34,0.05-14.01,0.08-23.35,0.13c0.12,0.21,0.18,0.31,0.31,0.51c9.34-0.05,14.01-0.08,23.35-0.13
						C77.25,74.33,77.19,74.22,77.07,74.01 M118.43,73.77c-10.18,0.06-15.27,0.09-25.46,0.15c0.28,0.21,0.42,0.32,0.71,0.52
						c10.18-0.06,15.28-0.08,25.46-0.14C118.85,74.09,118.71,73.99,118.43,73.77"/>
					<path style="clip-path:url(#SVGID_00000072276296333782708190000002361206128526992311_);fill:#4F4F4F;" d="M77.77,75.1
						c-9.34,0.05-14.02,0.07-23.36,0.12c0.14,0.19,0.21,0.29,0.35,0.47c9.35-0.05,14.02-0.07,23.37-0.12
						C77.98,75.39,77.91,75.3,77.77,75.1 M120,74.88c-10.19,0.05-15.28,0.08-25.47,0.13c0.3,0.19,0.45,0.29,0.75,0.48
						c10.19-0.05,15.29-0.08,25.48-0.13C120.45,75.17,120.3,75.08,120,74.88"/>
					<path style="clip-path:url(#SVGID_00000072276296333782708190000002361206128526992311_);fill:#4F4F4F;" d="M78.56,76.12
						c-9.35,0.05-14.02,0.07-23.37,0.11c0.15,0.18,0.22,0.27,0.37,0.45c9.35-0.05,14.03-0.07,23.38-0.11
						C78.79,76.39,78.71,76.3,78.56,76.12 M121.66,75.9c-10.2,0.05-15.29,0.08-25.49,0.13c0.31,0.18,0.46,0.27,0.77,0.45
						c10.2-0.05,15.3-0.07,25.5-0.12C122.13,76.18,121.97,76.09,121.66,75.9"/>
					<path style="clip-path:url(#SVGID_00000072276296333782708190000002361206128526992311_);fill:#4F4F4F;" d="M79.39,77.09
						C70.03,77.14,65.35,77.16,56,77.2c0.15,0.18,0.22,0.27,0.37,0.45c9.36-0.05,14.04-0.07,23.4-0.11
						C79.62,77.36,79.54,77.27,79.39,77.09 M123.36,76.88c-10.21,0.05-15.31,0.07-25.52,0.12c0.31,0.18,0.47,0.27,0.78,0.45
						c10.21-0.05,15.32-0.07,25.53-0.12C123.84,77.15,123.68,77.06,123.36,76.88"/>
					<path style="clip-path:url(#SVGID_00000072276296333782708190000002361206128526992311_);fill:#4F4F4F;" d="M80.21,78.08
						c-9.37,0.05-14.05,0.07-23.42,0.12c0.14,0.19,0.21,0.28,0.35,0.48c9.37-0.05,14.06-0.07,23.43-0.12
						C80.43,78.36,80.36,78.26,80.21,78.08 M125.07,77.86c-10.22,0.05-15.33,0.08-25.55,0.13c0.31,0.18,0.46,0.28,0.76,0.47
						c10.23-0.05,15.34-0.08,25.56-0.13C125.54,78.13,125.39,78.04,125.07,77.86"/>
					<path style="clip-path:url(#SVGID_00000072276296333782708190000002361206128526992311_);fill:#4F4F4F;" d="M80.97,79.11
						c-9.38,0.05-14.07,0.08-23.45,0.13c0.13,0.2,0.19,0.31,0.31,0.52c9.39-0.05,14.08-0.08,23.47-0.13
						C81.17,79.42,81.11,79.31,80.97,79.11 M126.74,78.87c-10.23,0.05-15.35,0.08-25.58,0.13c0.29,0.2,0.44,0.3,0.73,0.5
						c10.24-0.06,15.36-0.08,25.6-0.14C127.19,79.17,127.04,79.07,126.74,78.87"/>
					<path style="clip-path:url(#SVGID_00000072276296333782708190000002361206128526992311_);fill:#4F4F4F;" d="M81.64,80.25
						c-9.39,0.06-14.09,0.08-23.48,0.14c0.1,0.22,0.15,0.34,0.24,0.58c9.4-0.06,14.1-0.09,23.5-0.15
						C81.8,80.58,81.75,80.47,81.64,80.25 M128.31,79.97c-10.25,0.06-15.37,0.09-25.63,0.15c0.27,0.22,0.41,0.33,0.67,0.56
						c10.26-0.06,15.39-0.09,25.65-0.16C128.73,80.3,128.59,80.19,128.31,79.97"/>
					<path style="clip-path:url(#SVGID_00000072276296333782708190000002361206128526992311_);fill:#4F4F4F;" d="M82.15,81.52
						c-9.41,0.06-14.12,0.09-23.53,0.16c0.07,0.26,0.1,0.39,0.16,0.66c9.42-0.07,14.13-0.1,23.55-0.17
						C82.27,81.9,82.23,81.77,82.15,81.52 M129.75,81.21c-10.27,0.07-15.4,0.1-25.67,0.17c0.24,0.25,0.36,0.37,0.59,0.64
						c10.28-0.07,15.42-0.11,25.7-0.18C130.13,81.57,130,81.45,129.75,81.21"/>
					<path style="clip-path:url(#SVGID_00000072276296333782708190000002361206128526992311_);fill:#4F4F4F;" d="M82.48,82.98
						c-9.43,0.07-14.14,0.11-23.57,0.18c0.03,0.29,0.04,0.45,0.04,0.79c9.44-0.08,14.16-0.13,23.6-0.21
						C82.53,83.42,82.52,83.27,82.48,82.98 M131.02,82.61c-10.29,0.08-15.44,0.12-25.73,0.19c0.2,0.28,0.3,0.43,0.48,0.74
						c10.3-0.09,15.45-0.13,25.76-0.21C131.33,83.03,131.23,82.89,131.02,82.61"/>
					<path style="clip-path:url(#SVGID_00000072276296333782708190000002361206128526992311_);fill:#4F4F4F;" d="M82.54,84.76
						c-9.45,0.09-14.18,0.14-23.63,0.24c-0.03,0.38-0.05,0.58-0.1,0.99c9.46-0.1,14.19-0.16,23.65-0.26
						C82.51,85.32,82.52,85.13,82.54,84.76 M132.04,84.28c-10.32,0.1-15.47,0.15-25.79,0.24c0.15,0.36,0.21,0.55,0.34,0.94
						c10.33-0.11,15.49-0.16,25.82-0.27C132.27,84.82,132.19,84.63,132.04,84.28"/>
					<path style="clip-path:url(#SVGID_00000072276296333782708190000002361206128526992311_);fill:#4F4F4F;" d="M82.31,86.96
						c-9.47,0.11-14.21,0.17-23.68,0.28c-0.07,0.45-0.11,0.68-0.21,1.15c9.48-0.12,14.22-0.18,23.7-0.29
						C82.21,87.62,82.25,87.39,82.31,86.96 M132.76,86.38c-10.34,0.12-15.51,0.18-25.85,0.29c0.1,0.43,0.14,0.65,0.23,1.11
						c10.35-0.13,15.53-0.19,25.88-0.31C132.92,87.02,132.87,86.8,132.76,86.38"/>
					<path style="clip-path:url(#SVGID_00000072276296333782708190000002361206128526992311_);fill:#4F4F4F;" d="M81.86,89.48
						c-9.49,0.12-14.23,0.19-23.72,0.31c-0.11,0.49-0.16,0.75-0.28,1.26c9.5-0.13,14.24-0.19,23.74-0.32
						C81.71,90.22,81.76,89.97,81.86,89.48 M133.25,88.81c-10.36,0.13-15.54,0.2-25.91,0.33c0.06,0.48,0.09,0.73,0.14,1.23
						c10.37-0.14,15.56-0.21,25.93-0.34C133.35,89.53,133.32,89.29,133.25,88.81"/>
					<path style="clip-path:url(#SVGID_00000072276296333782708190000002361206128526992311_);fill:#4F4F4F;" d="M81.26,92.22
						c-9.5,0.13-14.25,0.2-23.76,0.33c-0.13,0.53-0.2,0.79-0.33,1.33c9.51-0.13,14.26-0.2,23.77-0.34
						C81.07,93.02,81.13,92.75,81.26,92.22 M133.57,91.5c-10.38,0.14-15.57,0.21-25.95,0.36c0.04,0.52,0.06,0.78,0.09,1.31
						c10.39-0.15,15.58-0.22,25.97-0.36C133.63,92.28,133.61,92.02,133.57,91.5"/>
					<path style="clip-path:url(#SVGID_00000072276296333782708190000002361206128526992311_);fill:#4F4F4F;" d="M80.56,95.11
						c-9.51,0.14-14.27,0.2-23.79,0.34c-0.14,0.54-0.21,0.81-0.35,1.36c9.52-0.14,14.28-0.2,23.8-0.34
						C80.36,95.92,80.42,95.65,80.56,95.11 M133.78,94.35c-10.4,0.15-15.59,0.22-25.99,0.37c0.03,0.54,0.04,0.81,0.06,1.35
						c10.4-0.15,15.6-0.22,26.01-0.37C133.82,95.15,133.81,94.88,133.78,94.35"/>
					<path style="clip-path:url(#SVGID_00000072276296333782708190000002361206128526992311_);fill:#4F4F4F;" d="M79.83,98.02
						c-9.52,0.14-14.28,0.2-23.81,0.34c-0.14,0.54-0.2,0.81-0.33,1.33c9.52-0.13,14.29-0.2,23.81-0.33
						C79.64,98.83,79.7,98.56,79.83,98.02 M133.94,97.25c-10.41,0.15-15.61,0.22-26.02,0.37c0.03,0.54,0.04,0.81,0.07,1.34
						c10.41-0.15,15.62-0.22,26.03-0.37C133.99,98.06,133.97,97.79,133.94,97.25"/>
					<path style="clip-path:url(#SVGID_00000072276296333782708190000002361206128526992311_);fill:#4F4F4F;" d="M79.15,100.89
						c-9.53,0.13-14.29,0.2-23.82,0.33c-0.12,0.51-0.18,0.77-0.29,1.27c9.53-0.13,14.29-0.19,23.82-0.32
						C78.98,101.66,79.03,101.41,79.15,100.89 M134.13,100.13c-10.42,0.15-15.62,0.22-26.04,0.36c0.04,0.52,0.06,0.78,0.11,1.28
						c10.42-0.14,15.63-0.21,26.05-0.35C134.2,100.91,134.17,100.65,134.13,100.13"/>
					<path style="clip-path:url(#SVGID_00000072276296333782708190000002361206128526992311_);fill:#4F4F4F;" d="M78.57,103.59
						c-9.53,0.12-14.29,0.18-23.82,0.3c-0.09,0.47-0.14,0.71-0.21,1.16c9.53-0.11,14.29-0.17,23.82-0.29
						C78.44,104.31,78.48,104.07,78.57,103.59 M134.41,102.87c-10.42,0.14-15.63,0.2-26.05,0.34c0.06,0.48,0.1,0.72,0.17,1.18
						c10.42-0.13,15.63-0.19,26.05-0.32C134.51,103.6,134.47,103.36,134.41,102.87"/>
					<path style="clip-path:url(#SVGID_00000072276296333782708190000002361206128526992311_);fill:#4F4F4F;" d="M78.17,106.05
						c-9.53,0.11-14.29,0.16-23.82,0.27c-0.05,0.42-0.08,0.62-0.11,1c9.53-0.1,14.29-0.15,23.82-0.25
						C78.09,106.68,78.11,106.47,78.17,106.05 M134.84,105.39c-10.42,0.12-15.63,0.18-26.06,0.3c0.1,0.43,0.15,0.64,0.27,1.04
						c10.42-0.11,15.63-0.17,26.05-0.28C134.99,106.05,134.94,105.83,134.84,105.39"/>
					<path style="clip-path:url(#SVGID_00000072276296333782708190000002361206128526992311_);fill:#4F4F4F;" d="M78,108.16
						c-9.52,0.09-14.29,0.13-23.81,0.22c0,0.34,0,0.5,0.03,0.81c9.52-0.08,14.28-0.12,23.8-0.2C78,108.68,78,108.51,78,108.16
						 M135.49,107.6c-10.42,0.1-15.63,0.16-26.05,0.26c0.15,0.36,0.22,0.54,0.4,0.86c10.42-0.09,15.63-0.14,26.05-0.23
						C135.71,108.15,135.63,107.97,135.49,107.6"/>
					<path style="clip-path:url(#SVGID_00000072276296333782708190000002361206128526992311_);fill:#4F4F4F;" d="M78.11,109.84
						c-9.53,0.07-14.29,0.11-23.83,0.18c0.01,0.28,0.01,0.42,0,0.69c9.57-0.08,14.33-0.12,23.86-0.18
						C78.14,110.27,78.13,110.13,78.11,109.84 M136.42,109.4c-10.42,0.08-15.63,0.12-26.05,0.2c0.19,0.29,0.28,0.43,0.45,0.7
						c10.43-0.08,15.64-0.11,26.07-0.19C136.71,109.83,136.62,109.69,136.42,109.4"/>
					<path style="clip-path:url(#SVGID_00000072276296333782708190000002361206128526992311_);fill:#4F4F4F;" d="M78.15,111.29
						c-9.54,0.06-14.31,0.1-23.92,0.19c-0.03,0.26-0.05,0.38-0.09,0.63c9.65-0.11,14.43-0.14,23.97-0.2
						C78.13,111.67,78.14,111.54,78.15,111.29 M137.4,110.88c-10.44,0.07-15.66,0.11-26.1,0.18c0.16,0.26,0.23,0.38,0.38,0.63
						c10.45-0.07,15.67-0.1,26.12-0.17C137.64,111.27,137.56,111.15,137.4,110.88"/>
					<path style="clip-path:url(#SVGID_00000072276296333782708190000002361206128526992311_);fill:#4F4F4F;" d="M138.22,112.22
						c-28.07,0.18-56.15,0.25-84.22,0.59c-0.06,0.24-0.09,0.36-0.15,0.59c28.23-0.39,56.47-0.43,84.71-0.6
						C138.42,112.58,138.36,112.46,138.22,112.22"/>
					<path style="clip-path:url(#SVGID_00000072276296333782708190000002361206128526992311_);fill:#4F4F4F;" d="M138.92,113.45
						c-28.43,0.17-56.86,0.16-85.28,0.61c-0.08,0.22-0.12,0.34-0.2,0.56c28.59-0.51,57.18-0.47,85.77-0.63
						C139.1,113.77,139.04,113.67,138.92,113.45"/>
					<path style="clip-path:url(#SVGID_00000072276296333782708190000002361206128526992311_);fill:#4F4F4F;" d="M139.54,114.59
						c-28.78,0.16-57.57,0.08-86.34,0.66c-0.09,0.22-0.13,0.32-0.22,0.54c28.93-0.64,57.89-0.52,86.83-0.68
						C139.7,114.9,139.65,114.8,139.54,114.59"/>
					<path style="clip-path:url(#SVGID_00000072276296333782708190000002361206128526992311_);fill:#4F4F4F;" d="M140.11,115.7
						c-29.13,0.16-58.27,0.01-87.39,0.71c-0.09,0.21-0.13,0.32-0.22,0.53c29.27-0.77,58.59-0.59,87.87-0.75
						C140.26,116,140.21,115.9,140.11,115.7"/>
					<path style="clip-path:url(#SVGID_00000072276296333782708190000002361206128526992311_);fill:#4F4F4F;" d="M140.67,116.79
						c-29.47,0.16-58.96-0.06-88.42,0.79c-0.08,0.22-0.12,0.33-0.2,0.55c29.61-0.9,59.26-0.66,88.88-0.82
						C140.83,117.09,140.77,116.99,140.67,116.79"/>
					<path style="clip-path:url(#SVGID_00000072276296333782708190000002361206128526992311_);fill:#4F4F4F;" d="M141.26,117.91
						c-29.8,0.17-59.63-0.1-89.41,0.86c-0.07,0.23-0.1,0.34-0.16,0.58c29.93-1.01,59.92-0.73,89.86-0.9
						C141.43,118.22,141.37,118.12,141.26,117.91"/>
					<path style="clip-path:url(#SVGID_00000072276296333782708190000002361206128526992311_);fill:#4F4F4F;" d="M141.91,119.08
						c-30.11,0.18-60.28-0.12-90.37,0.95c-0.04,0.24-0.06,0.37-0.09,0.62c30.24-1.1,60.54-0.8,90.8-0.99
						C142.1,119.42,142.04,119.31,141.91,119.08"/>
					<path style="clip-path:url(#SVGID_00000072276296333782708190000002361206128526992311_);fill:#4F4F4F;" d="M142.66,120.36
						c-30.41,0.2-60.89-0.11-91.28,1.03c-0.01,0.26-0.01,0.4-0.01,0.67c30.53-1.16,61.13-0.86,91.68-1.07
						C142.89,120.73,142.81,120.6,142.66,120.36"/>
					<path style="clip-path:url(#SVGID_00000072276296333782708190000002361206128526992311_);fill:#4F4F4F;" d="M143.55,121.76
						c-30.7,0.23-61.45-0.06-92.13,1.12c0.03,0.29,0.05,0.44,0.12,0.73c30.79-1.18,61.67-0.91,92.48-1.15
						C143.82,122.17,143.73,122.03,143.55,121.76"/>
					<path style="clip-path:url(#SVGID_00000072276296333782708190000002361206128526992311_);fill:#4F4F4F;" d="M144.64,123.32
						c-30.93,0.25-61.91,0-92.82,1.16c0.12,0.3,0.2,0.46,0.36,0.76c31.01-1.14,62.09-0.91,93.12-1.17
						C145.01,123.77,144.88,123.62,144.64,123.32"/>
					<path style="clip-path:url(#SVGID_00000072276296333782708190000002361206128526992311_);fill:#4F4F4F;" d="M146.17,124.98
						c-31.14,0.26-62.34-0.03-93.46,1.17c0.2,0.31,0.31,0.47,0.55,0.79c31.22-1.15,62.52-0.9,93.76-1.17
						C146.66,125.45,146.49,125.29,146.17,124.98"/>
					<path style="clip-path:url(#SVGID_00000072276296333782708190000002361206128526992311_);fill:#4F4F4F;" d="M148.09,126.71
						c-31.36,0.27-62.77,0.06-94.11,1.16c0.26,0.32,0.4,0.48,0.68,0.81c31.45-1.04,62.96-0.87,94.43-1.14
						C148.68,127.2,148.48,127.03,148.09,126.71"/>
					<path style="clip-path:url(#SVGID_00000072276296333782708190000002361206128526992311_);fill:#4F4F4F;" d="M150.31,128.49
						c-31.59,0.28-63.22,0.15-94.8,1.13c0.3,0.33,0.46,0.49,0.77,0.82c31.69-0.91,63.42-0.82,95.13-1.11
						C150.96,128.99,150.74,128.83,150.31,128.49"/>
					<path style="clip-path:url(#SVGID_00000072276296333782708190000002361206128526992311_);fill:#4F4F4F;" d="M81.37,130.96
						c-9.48,0.09-14.15,0.1-24.17,0.44c0.32,0.33,0.48,0.5,0.8,0.83c9.97-0.31,14.63-0.32,24.12-0.41
						C81.82,131.47,81.67,131.3,81.37,130.96 M152.72,130.31c-10.51,0.1-15.77,0.14-26.28,0.24c0.45,0.34,0.68,0.51,1.14,0.85
						c10.51-0.1,15.77-0.14,26.29-0.24C153.41,130.82,153.18,130.65,152.72,130.31"/>
					<path style="clip-path:url(#SVGID_00000072276296333782708190000002361206128526992311_);fill:#4F4F4F;" d="M82.99,132.8
						c-9.49,0.09-14.16,0.09-24.07,0.38c0.32,0.33,0.47,0.5,0.78,0.83c9.85-0.26,14.53-0.26,24.02-0.35
						C83.44,133.31,83.29,133.14,82.99,132.8 M155.21,132.14c-10.52,0.1-15.78,0.14-26.3,0.24c0.46,0.34,0.69,0.51,1.14,0.85
						c10.53-0.1,15.79-0.14,26.32-0.24C155.91,132.65,155.68,132.48,155.21,132.14"/>
					<path style="clip-path:url(#SVGID_00000072276296333782708190000002361206128526992311_);fill:#4F4F4F;" d="M84.56,134.63
						c-9.5,0.09-14.18,0.1-23.98,0.32c0.29,0.33,0.44,0.49,0.71,0.82c9.75-0.2,14.44-0.21,23.95-0.3
						C84.98,135.14,84.84,134.97,84.56,134.63 M157.7,133.97c-10.53,0.1-15.8,0.14-26.34,0.24c0.45,0.34,0.67,0.51,1.1,0.84
						c10.54-0.09,15.82-0.14,26.36-0.24C158.38,134.48,158.15,134.31,157.7,133.97"/>
					<path style="clip-path:url(#SVGID_00000072276296333782708190000002361206128526992311_);fill:#4F4F4F;" d="M85.98,136.44
						c-9.52,0.08-14.22,0.1-23.92,0.27c0.25,0.32,0.37,0.48,0.59,0.8c9.67-0.15,14.38-0.17,23.91-0.25
						C86.34,136.94,86.22,136.77,85.98,136.44 M160.08,135.78c-10.55,0.09-15.83,0.14-26.39,0.24c0.41,0.33,0.61,0.5,1,0.82
						c10.57-0.09,15.85-0.14,26.42-0.23C160.7,136.28,160.5,136.11,160.08,135.78"/>
					<path style="clip-path:url(#SVGID_00000072276296333782708190000002361206128526992311_);fill:#4F4F4F;" d="M87.15,138.2
						c-9.54,0.08-14.27,0.1-23.9,0.23c0.19,0.31,0.27,0.47,0.42,0.78c9.61-0.11,14.36-0.13,23.91-0.21
						C87.42,138.68,87.33,138.52,87.15,138.2 M162.23,137.56c-10.58,0.09-15.87,0.14-26.45,0.23c0.36,0.32,0.53,0.48,0.86,0.8
						c10.6-0.09,15.89-0.14,26.49-0.23C162.79,138.04,162.61,137.88,162.23,137.56"/>
					<path style="clip-path:url(#SVGID_00000072276296333782708190000002361206128526992311_);fill:#4F4F4F;" d="M87.95,139.9
						c-9.56,0.08-14.33,0.11-23.92,0.2c0.1,0.3,0.14,0.45,0.2,0.75c9.59-0.08,14.37-0.11,23.95-0.19
						C88.11,140.36,88.06,140.21,87.95,139.9 M164.08,139.27c-10.61,0.09-15.92,0.13-26.53,0.22c0.29,0.31,0.43,0.46,0.68,0.76
						c10.63-0.09,15.94-0.13,26.57-0.22C164.52,139.74,164.38,139.58,164.08,139.27"/>
					<path style="clip-path:url(#SVGID_00000072276296333782708190000002361206128526992311_);fill:#4F4F4F;" d="M88.31,141.52
						c-9.59,0.07-14.39,0.11-23.98,0.19c0.02,0.29,0.02,0.44,0.02,0.73c9.6-0.07,14.4-0.11,24-0.19
						C88.34,141.96,88.33,141.81,88.31,141.52 M165.5,140.91c-10.65,0.08-15.97,0.13-26.62,0.21c0.2,0.29,0.29,0.44,0.47,0.73
						c10.66-0.08,15.99-0.12,26.65-0.21C165.81,141.35,165.72,141.21,165.5,140.91"/>
					<path style="clip-path:url(#SVGID_00000072276296333782708190000002361206128526992311_);fill:#4F4F4F;" d="M88.34,143.1
						c-9.61,0.07-14.41,0.11-24.02,0.19c-0.02,0.29-0.03,0.44-0.06,0.73c9.62-0.07,14.42-0.11,24.04-0.19
						C88.32,143.54,88.33,143.39,88.34,143.1 M166.51,142.49c-10.67,0.08-16.01,0.12-26.68,0.21c0.16,0.29,0.23,0.44,0.37,0.73
						c10.68-0.08,16.02-0.12,26.7-0.21C166.76,142.93,166.68,142.78,166.51,142.49"/>
					<path style="clip-path:url(#SVGID_00000072276296333782708190000002361206128526992311_);fill:#4F4F4F;" d="M88.2,144.67
						c-9.62,0.07-14.43,0.11-24.06,0.19c-0.05,0.29-0.07,0.44-0.13,0.73c9.63-0.07,14.44-0.11,24.07-0.19
						C88.13,145.11,88.16,144.96,88.2,144.67 M167.33,144.06c-10.69,0.08-16.04,0.12-26.73,0.21c0.13,0.29,0.19,0.43,0.3,0.72
						c10.7-0.08,16.05-0.12,26.75-0.21C167.53,144.49,167.46,144.35,167.33,144.06"/>
					<path style="clip-path:url(#SVGID_00000072276296333782708190000002361206128526992311_);fill:#4F4F4F;" d="M87.92,146.23
						c-9.63,0.07-14.45,0.11-24.09,0.18c-0.07,0.29-0.1,0.43-0.18,0.72c9.64-0.07,14.46-0.11,24.1-0.18
						C87.82,146.67,87.85,146.52,87.92,146.23 M167.99,145.62c-10.71,0.08-16.07,0.12-26.78,0.21c0.1,0.29,0.15,0.43,0.25,0.72
						c10.72-0.08,16.08-0.12,26.8-0.21C168.15,146.05,168.1,145.91,167.99,145.62"/>
					<path style="clip-path:url(#SVGID_00000072276296333782708190000002361206128526992311_);fill:#4F4F4F;" d="M87.54,147.8
						c-9.64,0.07-14.47,0.11-24.11,0.18c-0.08,0.29-0.12,0.43-0.2,0.72c9.65-0.07,14.47-0.11,24.12-0.18
						C87.43,148.23,87.47,148.08,87.54,147.8 M168.54,147.18c-10.73,0.08-16.09,0.12-26.82,0.21c0.09,0.29,0.13,0.43,0.21,0.72
						c10.73-0.08,16.1-0.12,26.83-0.21C168.68,147.61,168.63,147.46,168.54,147.18"/>
					<path style="clip-path:url(#SVGID_00000072276296333782708190000002361206128526992311_);fill:#4F4F4F;" d="M87.12,149.35
						c-9.65,0.07-14.48,0.11-24.13,0.18c-0.08,0.29-0.13,0.43-0.21,0.72c9.66-0.07,14.48-0.11,24.14-0.18
						C87,149.79,87.04,149.64,87.12,149.35 M169.02,148.73c-10.74,0.08-16.11,0.12-26.85,0.21c0.08,0.29,0.12,0.43,0.2,0.72
						c10.74-0.08,16.12-0.12,26.86-0.21C169.15,149.16,169.11,149.01,169.02,148.73"/>
					<path style="clip-path:url(#SVGID_00000072276296333782708190000002361206128526992311_);fill:#4F4F4F;" d="M86.69,150.91
						c-9.66,0.07-14.49,0.11-24.15,0.18c-0.08,0.29-0.12,0.43-0.19,0.72c9.66-0.07,14.49-0.11,24.15-0.19
						C86.57,151.34,86.61,151.2,86.69,150.91 M169.48,150.28c-10.75,0.08-16.13,0.12-26.88,0.21c0.08,0.29,0.12,0.43,0.21,0.72
						c10.75-0.08,16.13-0.12,26.89-0.21C169.61,150.71,169.57,150.56,169.48,150.28"/>
					<path style="clip-path:url(#SVGID_00000072276296333782708190000002361206128526992311_);fill:#4F4F4F;" d="M86.3,152.47
						c-9.66,0.07-14.49,0.11-24.15,0.19c-0.07,0.29-0.1,0.43-0.16,0.72c9.66-0.07,14.49-0.11,24.16-0.19
						C86.2,152.9,86.23,152.76,86.3,152.47 M169.97,151.83c-10.76,0.08-16.14,0.12-26.9,0.21c0.09,0.29,0.14,0.43,0.23,0.72
						c10.76-0.08,16.14-0.12,26.91-0.21C170.11,152.26,170.06,152.12,169.97,151.83"/>
					<path style="clip-path:url(#SVGID_00000072276296333782708190000002361206128526992311_);fill:#4F4F4F;" d="M85.99,154.04
						c-9.66,0.07-14.49,0.11-24.16,0.19c-0.05,0.29-0.07,0.44-0.1,0.73c9.66-0.07,14.49-0.11,24.16-0.19
						C85.93,154.47,85.95,154.33,85.99,154.04 M170.51,153.38c-10.77,0.08-16.15,0.12-26.91,0.21c0.11,0.29,0.16,0.43,0.28,0.72
						c10.77-0.08,16.15-0.12,26.92-0.21C170.68,153.82,170.63,153.67,170.51,153.38"/>
					<path style="clip-path:url(#SVGID_00000072276296333782708190000002361206128526992311_);fill:#4F4F4F;" d="M85.82,155.61
						c-9.66,0.07-14.49,0.11-24.16,0.19c-0.02,0.29-0.02,0.44-0.02,0.73c9.66-0.08,14.49-0.11,24.15-0.19
						C85.8,156.04,85.8,155.9,85.82,155.61 M171.17,154.94c-10.77,0.08-16.16,0.12-26.92,0.21c0.13,0.29,0.2,0.44,0.35,0.73
						c10.77-0.08,16.16-0.13,26.93-0.21C171.38,155.38,171.31,155.23,171.17,154.94"/>
					<path style="clip-path:url(#SVGID_00000072276296333782708190000002361206128526992311_);fill:#4F4F4F;" d="M85.82,157.18
						c-9.66,0.08-14.49,0.11-24.15,0.19c0.01,0.17,0.02,0.25,0.04,0.42c9.66-0.08,14.49-0.11,24.15-0.19
						C85.83,157.44,85.83,157.35,85.82,157.18 M171.98,156.51c-10.77,0.08-16.16,0.13-26.93,0.21c0.1,0.17,0.15,0.25,0.25,0.42
						c10.77-0.08,16.16-0.13,26.93-0.21C172.13,156.76,172.08,156.68,171.98,156.51"/>
				</g>
			</g>
		</g>
	</g>
</g>
</svg>
